<svg version="1.0" xmlns="http://www.w3.org/2000/svg"
 width="980.000000pt" height="980.000000pt" viewBox="0 0 980.000000 980.000000"
 preserveAspectRatio="xMidYMid meet">

<g transform="translate(0.000000,980.000000) scale(0.100000,-0.100000)"
fill="#fff" stroke="none">
<path d="M1046 9790 c-450 -71 -844 -407 -985 -839 -43 -132 -56 -219 -56
-376 1 -215 32 -349 125 -540 59 -120 111 -190 227 -309 154 -157 286 -240
478 -305 131 -44 250 -62 405 -62 200 0 316 25 493 109 l98 46 776 -776 777
-777 -102 -208 c-176 -361 -202 -472 -202 -853 0 -381 26 -492 202 -853 l102
-208 -246 -246 -245 -245 -124 70 c-202 115 -372 180 -589 224 -101 20 -143
23 -340 23 -206 -1 -236 -3 -353 -28 -458 -97 -837 -333 -1106 -686 -531 -698
-501 -1651 74 -2321 350 -409 916 -652 1460 -626 465 21 884 205 1211 531 268
267 449 611 520 990 29 154 27 480 -4 634 -45 222 -126 429 -252 645 l-63 108
249 249 249 249 95 -57 c209 -123 410 -204 629 -251 117 -25 143 -26 366 -26
212 0 252 2 345 22 287 62 524 173 764 356 47 36 97 68 111 72 21 5 43 -7 123
-67 100 -75 611 -466 625 -479 4 -4 -6 -42 -23 -85 -81 -204 -115 -388 -114
-625 0 -130 5 -186 22 -266 70 -327 218 -586 470 -825 201 -190 455 -323 732
-384 100 -22 379 -31 494 -16 346 46 660 210 915 477 385 403 515 966 346
1498 -37 116 -133 307 -206 411 -82 115 -240 273 -352 352 -191 134 -439 238
-638 267 -123 18 -372 21 -485 5 -287 -40 -562 -170 -773 -365 -82 -77 -83
-77 -62 -35 12 23 19 50 16 59 -4 9 -130 112 -282 227 -151 116 -305 237 -340
270 l-65 60 50 135 c116 309 147 475 140 757 l-4 192 115 36 c64 20 254 80
422 134 l306 97 127 -123 c291 -281 530 -383 896 -383 261 0 442 55 661 202
224 149 400 378 484 630 146 436 37 903 -289 1236 -144 148 -300 243 -525 319
-105 36 -108 37 -302 41 -224 5 -303 -6 -449 -63 -247 -95 -433 -234 -582
-435 -154 -207 -215 -392 -226 -689 l-7 -164 -55 -18 c-30 -10 -179 -54 -330
-99 -151 -45 -299 -92 -329 -106 -46 -20 -52 -27 -48 -46 11 -46 29 -189 25
-194 -3 -2 -18 30 -33 73 -81 230 -228 457 -420 648 -208 209 -547 390 -891
477 l-132 33 -6 60 c-6 68 -23 480 -30 755 l-5 186 82 49 c204 121 325 250
413 440 105 228 106 521 0 749 -107 233 -312 414 -576 508 -59 21 -82 23 -240
23 -133 0 -193 -4 -251 -18 -83 -19 -194 -69 -267 -119 -81 -56 -211 -189
-268 -274 -105 -158 -138 -280 -139 -509 0 -130 3 -160 23 -225 81 -257 255
-461 499 -584 52 -26 77 -45 89 -68 23 -45 32 -187 37 -610 l5 -366 -70 -16
c-189 -43 -538 -222 -691 -354 -58 -50 -73 -55 -31 -9 17 17 45 51 64 75 l33
44 -369 371 c-203 205 -546 550 -763 769 l-394 396 41 94 c82 187 112 326 112
513 0 201 -40 374 -127 550 -24 50 -66 120 -93 156 -59 80 -214 233 -295 294
-117 88 -280 157 -460 196 -104 22 -331 33 -419 19z m354 -335 c322 -68 583
-317 672 -640 31 -114 31 -326 0 -440 -90 -328 -347 -572 -674 -640 -89 -19
-267 -19 -356 0 -267 56 -500 239 -617 486 -60 127 -78 214 -78 374 0 160 18
247 78 374 115 242 349 429 607 485 87 19 280 20 368 1z m3545 -279 c156 -50
293 -169 364 -319 47 -98 61 -160 61 -267 0 -107 -14 -169 -62 -270 -55 -114
-168 -229 -278 -282 -79 -39 -198 -68 -275 -68 -77 0 -196 29 -275 68 -111 54
-224 169 -278 282 -48 101 -62 163 -62 270 0 107 14 169 61 267 133 279 448
413 744 319z m3567 -5884 c294 -78 541 -279 671 -546 80 -164 117 -369 98
-544 -47 -435 -340 -776 -769 -894 -112 -31 -382 -31 -494 0 -187 51 -347 144
-476 275 -133 133 -219 287 -268 472 -23 86 -26 121 -26 245 0 124 3 159 26
245 30 114 97 261 160 349 55 77 182 200 261 253 115 77 249 133 384 158 107
20 331 13 433 -13z"/>
</g>
</svg>
